<?xml version="1.0" encoding="UTF-8" standalone="no"?>
<svg xmlns="http://www.w3.org/2000/svg" height="333px" width="401px" version="1.1" xmlns:xlink="http://www.w3.org/1999/xlink" viewBox="0 0 401 333"><!-- Generator: Sketch 39.1 (31720) - http://www.bohemiancoding.com/sketch -->
 <title>Man</title>
 <desc>Created with Sketch.</desc>
 <g id="Correctarium" fill-rule="evenodd" fill="none">
  <g id="Desktop-Landing-Copy" transform="translate(-80 -103)">
   <g id="Man" transform="translate(80 103)">
    <g id="Шар_1">
     <path id="Shape" fill="#fff" d="m80.312 210.61s22.108-5.76 23.038-5.2 2.97 32.14 3.34 33.81 3.16 11.89 3.16 11.89l-30.838 11.7s-1.859-15.79-2.045-20.8c-0.186-5.02 3.345-31.4 3.345-31.4z"/>
     <path id="Shape" fill="#fff" d="m247.64 183.95s-2.3 8.26-5.44 12.13c-3.14 3.86-31.75 17.9-32.03 17.04-0.29-0.85-2.29-17.98 0.28-22.26s9.99-13.98 11.42-14.84 17.69-3.71 18.84-4c1.14-0.28 7 7.59 6.93 11.93z"/>
     <path id="Shape" fill="#fff" d="m400.52 211l-59.61-18.65-31.54-9.7-4.89 2.54 6.92-2.07-5.23-1.64 2.09-4.53-7.48 2.85-12.97-4.07-111.77 44.6-0.52-3.51c-0.5-5.1-1.72-13.01-3.22-21.81l-1.16-7.82-3.84-19.59c-2.64-13.84-4.87-24.84-4.87-24.84l1.96-2.65c0.24 0.03 0.64 0.08 1.16 0.14 0.01 0.03 0.01 0.05 0.01 0.05l0.82 4.47 4.41 22.73s2.91 16.28 3.96 22.03c1.04 5.76 3.37 23.43 3.66 25.81 0.29 2.39 1.45 1.4 1.45 1.4l10.18-4.07s16.04-6.27 21.91-8.8c0.08 1.21 0.19 2 0.19 2l1.31-2.67c0.21-0.09 0.37-0.18 0.48-0.24 1.52-0.86 1.32-2.05 1.07-2.89l6.13-12.4c-2.05 0.45-3.51 1.29-4.62 2.21 0.73-0.96 2.25-2.32 3.59-3.42 5.47 3.04 10.4 5.76 10.4 5.76l8.38-13.4 0.07-0.33c2.68 0.49 5.56 0.9 7.61 1.01l-2.6 13.7c1.81-2.24 2.07-4.72 2.07-4.72-0.09-0.58 4.02-3.21 5.98-5.9 1.97-2.68 2.5-6.93 4.08-8.51 1.58-1.57 1.1-4.2 1.52-5.59 0.41-1.4 2.89-3.47 1.47-5.17-1.42-1.71-2.81-2.12-2.81-2.12s-0.1-2.02-1.71-4.89c-1.6-2.87-3.8-3.78-6.23-3.86-1.06-0.04-2.33 0.08-3.72 0.32l9.51-43.25c-6.46-2.25-29.03-8.95-30.07-9.601l-8.05 14.511c-1.02-1.12-3.69-1.54-3.81-1.62-0.18-0.12-5.58-2.79-7.33-3.9-1.74-1.1-13.78-5.29-15.4-5.98-1.63-0.7-11.22-3.726-11.34-3.899 0 0-2.21-0.872-2.32-1.105-0.12-0.232-1.05-1.453-2.45-2.79-1.39-1.337-0.75 2.093-0.75 2.093l0.65 4.721c-0.38-0.71-0.78-1.37-1.18-1.84-1.5-1.808-2.61-2.295-2.61-2.295l-0.04 0.145c-0.02-0.16-0.04-0.31-0.07-0.445 1.35-2.678 2.36-5.43 2.83-7.996 0.78-4.25 2.64-10.46 2.99-16.472l0.02 0.228s0.31-0.898 0.75-2.405l-2.54 14.089c0.79 0.072 1.82-2.372 2.4-4.321 0.57-1.95 1.69-6.789 2.06-9.423 0.29-2.059-0.77-2.611-1.25-2.756 1.15-4.33 2.55-10.921 2.51-16.986 0.01-0.416 0-0.829-0.01-1.24-0.25-10.305 0.56-14.77-5.45-20.661-6-5.891-11.68-6.544-11.68-6.544s0.15 0.272 0.32 0.623c-0.21-0.038-0.32-0.051-0.32-0.051s0.56 1.005 0.78 1.674c-0.08 0.014-0.21-0.04-0.44-0.211-1.37-1.061-6.6-3.675-11.04-3.281 0 0-6.01-1.486-8.49 2.292 0 0-4.99-0.99-7.43 0.923-2.44 1.912-2.64 2.561-2.64 2.561s-6.13 1.309-7.07 2.825c-0.29 0.475-0.31 0.778-0.19 0.972-0.25 0.692 0.3 0.863 0.73 0.893-0.59 0.827-1.59 2.321-1.65 2.975-0.01 0.131 0.02 0.23 0.06 0.308-0.03 0.097-0.05 0.188-0.06 0.264-0.06 0.672 0.79 0.584 1.26 0.486-1 2.193-4.17 9.569-4.39 15.613-0.02 0.75-0.03 1.486-0.03 2.208-0.03 6.455 1.08 11.679 1.08 11.679s0.02 0.011 0.05 0.032c-0.7 0.712-2.22 2.727-1.61 6.33 0.78 4.611 1.94 7.923 3.44 10.464 1.51 2.541 3.85 3.156 4.94 2.988l-1.93-6c0.19 0.051 0.3 0.063 0.3 0.063l-0.53-6.183s-0.78 0.329-1.41 0.995l-2.63-8.215c0.98 0.805 2.87 2.537 3.48 4.439 0.82 2.612 2.31 6.754 3.3 6.177 0 0 0.07-0.234 0.16-0.583l0.14-0.01c-0.23 2.817-0.39 5.385-0.44 7.355-0.1 4.474 1.24 7.957 2.78 10.836-1.24 0.885-2.24 1.835-2.93 2.569-0.39 0.322-0.75 0.669-0.93 1.061-0.1 0.129-0.16 0.202-0.16 0.202s-0.02 0.134-0.06 0.383c-0.72 0.944-4.59 1.376-4.59 1.376l-2.03 1.27-5.7 2.16s-6.23 1.5-8.68 2.86c-2.44 1.35-3.29 0.33-4.98 0.25-1.68-0.09-3.624 0.17-4.551 0.59-0.929 0.42-3.546 2.87-4.39 3.46-0.846 0.59-3.63 2.28-5.147 3.63-1.521 1.35-1.436 3.04-1.605 3.88-0.168 0.85-1.435 2.28-2.868 3.29-1.435 1.02-3.039 3.55-4.557 5.91-1.52 2.36-1.773 4.39-1.702 4.96 0.07 0.57-1.083 2.38-1.252 2.89s-2.616 5.4-3.883 6.75c-1.266 1.35-5.4 10.04-6.33 11.65-0.929 1.6-1.265 4.55-1.94 5.65s-3.46 7.09-4.22 8.27-5.064 9.62-6.077 14.43c-1.014 4.82 0.253 9.71 1.604 12.92 1.35 3.21 3.207 3.71 3.207 3.71s1.688 2.96 1.771 3.21c0.085 0.25 1.099 3.8 6.921 6.58 5.822 2.79 14.684-0.08 17.722-1.85 3.039-1.78 2.025 0.08 2.025 0.08s0.377 1.16 0.749 2.23c-3.755 0.85-7.716 1.8-9.688 2.44-4.374 1.42-3.514 2.86-3.798 5.97-0.283 3.1 3.715 37.97 3.715 37.97l10.856-28.2c0.16 0.18 0.318 0.36 0.479 0.55l0.519 10.11c-0.683 1.86-1.234 3.96-1.397 6.23-0.163 2.28 0.612 8.22 1.047 10.92l-45.038 17.97 48.449 21.48-48.909-21.44-0.54 4.03-0.612-0.08v5.84l17.033 7.32-11.443-9.33 90.46 40.09-4.97 2 21.61 9.51 33.51-15.12 211.8-95.68v-4l-2.36 0.93 2.36-1.07v-6.45l-0.48 0.18zm-250.42 19.69l-5.52 2.2 0.4-6.63 0.84-48.2s0.68-30.12 0.85-32.32c0.17-2.19-1.1-2.53-1.1-2.53l3.81-2.38 2.87 2.74s-2.62 80.05-2.15 87.12zm-10.36-99.54l-0.66-0.07 0.34 0.31c-0.08-0.02-0.16-0.04-0.25-0.05-0.18-0.04-0.34-0.02-0.47 0.03-0.06 0.02-0.13 0.04-0.2 0.06 0.2-0.13 0.39-0.25 0.58-0.35 0.35-0.2 0.72-0.36 1.1-0.51 1.15-0.35 2.65-0.69 4.11-0.92 1.54-0.15 2.96-0.12 3.9-0.07-1.81 0.02-3.39 0.13-4.78 0.34-3.37 0.52-3.66 1.2-3.67 1.23zm27.44 1.63c-1.89-1.02-5.14-2.41-9.2-2.75 1.66-0.01 2.89-0.04 2.89-0.04 0.02-0.01 0.05-0.03 0.08-0.05l-0.12 0.44s3.25 0.33 6.35 2.4z"/>
     <path id="Shape" fill="#fff" d="m270.02 115.87s-4.57-1.49-19.61-7.65l-17.61 63.82c14.47-6.44 34.57-50.98 37.22-56.17z"/>
     <path id="Shape" fill="#fff" d="m242 188.17l-7.52-1.95c2.35 3.16 6.98 2.11 7.52 1.95z"/>
     <path id="Shape" fill="#54596B" d="m175.19 73.263s4.19-12.167 3.93-22.472 0.55-14.769-5.46-20.66c-6-5.892-11.68-6.544-11.68-6.544s1.72 3.094 0.35 2.034c-1.37-1.061-6.61-3.676-11.05-3.282 0 0-6.01-1.485-8.49 2.293 0 0-4.98-0.99-7.43 0.924-2.44 1.911-2.64 2.562-2.64 2.562s-6.12 1.307-7.06 2.823 0.95 1.289 0.95 1.289-1.98 2.624-2.07 3.551c-0.08 0.926 1.57 0.41 1.57 0.41s-4.44 9.073-4.69 16.261c-0.26 7.185 1.05 13.314 1.05 13.314s3.26 2.301 4.09 4.914c0.82 2.612 2.31 6.754 3.3 6.177 0 0 0.83-2.862 0.77-3.675 0 0 0.19-5.386 0.25-6.075s1.25-9.27 1.25-9.958c0 0 1.69-6.387 2.26-7.453 0.56-1.065 3.19-4.384 5.07-5.198 1.88-0.815 4.7-1.753 6.08-1.816 1.37-0.062 5.57 0.063 6.76 0.063s3.07 0.062 3.69 0.563c0.63 0.501 1.32 2.38 1.88 2.004 0.57-0.376 2.62-2.21 3.82-2.38s3.45-0.438 5.07-0.062c1.63 0.376 4.83 1.251 5.95 2.317 1.13 1.065 2.57 2.192 2.7 3.57 0.12 1.377 0.5 6.827 0.5 7.829s-0.75 7.453-0.69 7.829c0.06 0.375-0.32 6.137-0.25 6.575"/>
     <polygon id="Shape" points="44.127 278.51 156.07 328.17 401 217.27 401 210.82 155.62 321.64 44.196 272.82" fill="#DEDDE5"/>
     <path id="Shape" fill="#C1E6F8" d="m178.12 99.02c0.12 0.173 9.71 3.2 11.34 3.9 1.62 0.69 13.66 4.88 15.4 5.98 1.75 1.11 7.15 3.78 7.33 3.9 0.17 0.11 5.23 0.87 4.01 3.25-1.22 2.39-17.21 30.75-17.15 30.93s-7.15 13.08-7.15 13.08-1.86 2.27-1.51 2.73c0.35 0.47 3.66 2.91 3.89 2.97 0.24 0.06 13.95 8.43 15 9.18 1.05 0.76 8.84 5.58 10.52 6.4 1.69 0.81 5.47 2.67 5.47 2.67s-1.86-0.05-3.37 1.05c-1.52 1.1-5 3.95-5.7 5.29s-0.99 2.73-1.1 4.3c-0.12 1.57-0.41 4.01-0.3 4.71 0.12 0.7 1.17 2.44-0.87 3.6-2.03 1.17-23.89 9.71-23.89 9.71l-10.18 4.07s-1.16 0.99-1.45-1.4c-0.29-2.38-2.61-20.05-3.66-25.81-1.05-5.75-3.95-22.03-3.95-22.03l-4.42-22.73-0.82-4.47s-0.23-0.76 0.76-2.39l3.84-5.29s1.68-2.21 1.04-2.68c-0.64-0.46-5.52-3.02-5.52-3.02s-3.43 1.16-0.64-1.57 6.34-7.09 6.98-8.25 1.86-7.15 1.86-8.43-0.35-4.71-0.35-4.71l-0.93-6.743s-0.64-3.43 0.75-2.093c1.4 1.337 2.33 2.558 2.45 2.79 0.11 0.233 2.32 1.106 2.32 1.106z"/>
     <path id="Shape" fill="#C1E6F8" d="m132.51 97.661s-0.93 5.819-0.85 7.599c0.08 1.77 0.38 4.09 1.56 5.86s6.5 9.54 6.92 9.87c0.42 0.34 5.72 5.17 6.31 5.85 0.59 0.67 4.14 2.53 0.93 2.53s-9.11 1.43-9.2 2.19c-0.08 0.76 0.38-1.08 1.79 0.26 1.42 1.35 9.52 8.94 9.52 8.94l-3.92 2.45s1.27 0.34 1.1 2.53c-0.17 2.2-0.84 32.32-0.84 32.32l-0.85 48.2-0.42 6.92s1.1 1.6-1.6 2.61-50.979 20.34-50.979 20.34-1.856 1.52-2.277-1.01c-0.423-2.53-1.267-8.86-1.098-11.23 0.169-2.36 0.756-4.53 1.476-6.44 0.719-1.91 1.514-2.75 1.454-5.41s-0.734-2.83-1.579-3.93c-0.845-1.09-1.772-1.85-2.447-2.95-0.676-1.1-1.099-2.53-0.676-3.97 0.422-1.43 1.521-3.97 1.772-6.07 0.254-2.12 0.251-3.89-0.127-4.78-0.379-0.88-1.309-3.75-1.309-3.75s1.014-1.86-2.025-0.08c-3.038 1.77-11.899 4.64-17.722 1.85-5.822-2.78-6.836-6.33-6.921-6.58-0.084-0.25-1.771-3.21-1.771-3.21s-1.857-0.5-3.207-3.71c-1.352-3.21-2.618-8.1-1.604-12.91 1.013-4.81 5.317-13.25 6.077-14.44 0.76-1.18 3.545-7.17 4.22-8.27 0.676-1.09 1.012-4.05 1.94-5.65 0.93-1.6 5.064-10.3 6.33-11.65 1.267-1.35 3.714-6.24 3.883-6.75 0.169-0.5 1.322-2.32 1.252-2.89-0.071-0.57 0.183-2.6 1.702-4.96 1.518-2.36 3.122-4.89 4.557-5.9 1.434-1.02 2.7-2.45 2.868-3.3 0.17-0.84 0.085-2.53 1.605-3.88 1.518-1.35 4.302-3.04 5.147-3.63 0.844-0.59 3.461-3.04 4.39-3.46 0.927-0.42 2.869-0.67 4.559-0.59s2.53 1.1 4.98-0.25c2.44-1.35 8.67-2.86 8.67-2.86l5.7-2.16 2.03-1.27s4.53-0.5 4.7-1.609c0.18-1.109 1.87-1.869 2.54-2.628 0.68-0.76 1.86-1.772 1.86-1.266 0 0.508-0.42 3.124-0.42 3.124z"/>
     <path id="Shape" fill="#fff" d="m87.454 165.69s-7.395 2.21-10.158 5.25-6.427 10.92-6.359 12.37c0.069 1.45-0.897 6.5 1.313 10.23 2.212 3.73 3.94 5.46 5.598 6.36 1.659 0.89 3.665 2.34 7.81 1.72 4.146-0.62 8.501-2.9 9.399-3.66 0.897-0.76 2.971-4.15 3.662-5.46s2.001-3.66 2.001-3.66-0.07-1.32 1.59-1.18 4.29-0.41 5.46-0.62c1.18-0.21 2.42-0.97 2.56-1.66s0.14-2.07 0.14-2.07 0-0.83 0.69-1.38 2.14-1.73 2.35-2.49 0.14-1.94 0.14-2.14c0-0.21-0.35-0.76 0.83-1.52 1.17-0.76 2.28-1.94 2.21-3.11-0.07-1.18-0.42-2.7-0.42-2.7s0.69-0.62 1.39-1.66c0.69-1.03 1.79-3.04 1.79-3.87 0-0.82-0.97-3.8-0.97-3.8l-0.82-1.03s0.27-1.18 0.41-1.87 0.35-4.22 0.28-6.91-0.97-9.19-0.97-10.92-0.83-6.77-1.38-7.81c-0.56-1.04-2.01-2.9-3.11-2.76-1.11 0.14-3.67 0.27-3.8 3.52-0.14 3.25-0.07 7.26 0.07 8.99 0.13 1.72 0.06 5.94-0.56 7.18-0.62 1.25-1.66 3.46-4.42 4.43-2.77 0.96-5.116 1.87-5.945 3.25s-2.972 3.79-3.178 4.21c-0.209 0.41-2.145 2.56-3.594 3.25-1.451 0.69-4.009 1.52-4.009 1.52z"/>
     <path id="Shape" fill="#88C6E3" d="m179.1 142c3.74 0.43-14.97-1.92-14.97-1.92l2.14-2.89s2.11-4.39 2.71-3.31c0.6 1.06 3.28 3.42 4.99 4.7s5.13 3.42 5.13 3.42z"/>
     <path id="Shape" fill="#88C6E3" d="m128.64 141.25l16.46-5.02-5.13-4.39s-0.64-1.28-2.57 0.22c-1.92 1.49-8.76 9.19-8.76 9.19z"/>
     <polygon id="Shape" points="141.09 299.6 134.81 301.88 78.025 276.67 84.733 274.48" fill="#DEDDE5"/>
     <polygon id="Shape" points="279.61 239.26 201.82 273.81 143.1 246.42 149.81 244.22 202.35 268.33 282.29 233.46" fill="#DEDDE5"/>
     <path id="Shape" fill="#F1F0F4" d="m141.81 133.59l10.44 9.98s-2.86 87.62-2.07 87.62 25.95-10.25 25.95-10.25l-4.98-33.75-8.72-44.42 6.55-8.89s-4.49-3.33-11.09-3.86-11.05-0.62-14.48-0.09c-3.43 0.52-3.67 1.22-3.67 1.22l2.07 2.44z"/>
     <g id="Group" transform="translate(63 21)">
      <path id="Shape" stroke="#54596B" stroke-width=".9705" d="m1.764 155.25c-2.406 6.88-0.266 17.43 2.975 19.21"/>
      <path id="Shape" stroke="#54596B" stroke-width=".9705" d="m64.846 78.726s-4.871 2.532-7.923 4.797c0 0-2.513 1.219-4.101 2.406-1.589 1.185-3.76 1.22-3.76 1.22s-4.5-1.806-8.344 1.567c-3.845 3.375-7.36 4.2-7.965 6.628-0.604 2.43-1.061 3.246-1.061 3.246s-4.596 4.26-6.413 7.44c-1.82 3.18-1.916 5.27-1.916 5.27s-1.143 3.48-4.613 9.08c-3.472 5.6-6.621 10.93-7.559 14.69"/>
      <path id="Shape" stroke="#54596B" stroke-width=".9705" d="m106.2 75.495s2.05 12.654 1.65 16.971c-0.75 8.164-6.55 14.494-9.983 16.524 0 0-10.669 0.21-11.512-0.32-8.516-5.37-18.284-21.731-18.025-24.337 0.34-3.447 1.357-10.771 1.357-10.771"/>
      <path id="Shape" stroke="#54596B" stroke-width=".9705" d="m144.25 93.829c-3.89-2.014-9.23-4.535-14.63-6.343-10.46-3.503-19.68-6.643-19.68-6.643"/>
      <path id="Shape" stroke="#54596B" stroke-width=".9705" d="m183.57 158.5c-4.14-0.23-11.61-1.63-14.1-2.58-2.49-0.94-2.9-2.76-2.9-2.76s-2.49-0.26-3.14-2.61 3.49-4.32 3.49-4.32c-1.34-0.98-1.32-2.84 0.39-4.26 1.71-1.43 5.79-2.2 5.79-2.2s-1.15 0.04-1.86-1.6 0.76-3.65 4.46-4.89 7.2-1.92 9.63-1.84c2.43 0.07 4.64 0.99 6.24 3.86s1.7 4.89 1.7 4.89 1.39 0.41 2.81 2.12c1.42 1.7-1.06 3.77-1.47 5.16-0.42 1.4 0.06 4.03-1.52 5.6-1.57 1.57-2.11 5.83-4.07 8.51-1.97 2.69-6.08 5.32-5.99 5.9 0 0-0.26 2.48-2.07 4.72"/>
      <path id="Shape" stroke="#54596B" stroke-width=".9705" d="m191.12 88.51c-6.46-2.25-29.03-8.956-30.07-9.603l-36.74 66.283s17.28 11.62 24.64 15.73c7.36 4.12 18.55 10.3 18.55 10.3l8.38-13.4"/>
      <path id="Shape" stroke="#54596B" stroke-width=".9705" d="m187.69 131.7c5.69-10.51 16.68-31.64 19.33-36.831 0 0-4.57-1.492-10.84-3.572"/>
      <path id="Shape" stroke="#54596B" stroke-width=".9705" d="m97.831 109.38s5.499 0.55 9.009 4.76c3.5 4.22 9.81 7.34 11.12 7.76 1.3 0.42-0.38-4.08-0.39-10.52s-2.37-19.275-5.35-25.965c0 0-1.64-4.513-3.15-6.318-1.5-1.806-2.61-2.293-2.61-2.293"/>
      <path id="Shape" stroke="#54596B" stroke-width=".9705" d="m86.355 108.67s-6.331-0.77-10.273 1.41c-3.943 2.18-10.069 9.71-10.069 9.71s-3.926-14.36-3.214-21.937c1.082-11.477 2.685-20.568 2.685-20.568s1.609-2.162 4.214-3.976"/>
      <path id="Shape" stroke="#54596B" stroke-width=".9705" d="m105.61 113.1s-5.59 7.07-6.183 8.66c0 0-8.493 0.82-10.409 0.5l-12.937-12.18"/>
      <path id="Shape" stroke="#54596B" stroke-width=".9705" d="m89.25 122.57s-1.513 83.06-1.877 87.03"/>
      <path id="Shape" stroke="#54596B" stroke-width=".9705" d="m99.428 121.77s13.402 65.94 13.332 78.06"/>
      <path id="Shape" stroke="#54596B" stroke-width=".9705" d="m141.16 171.04c1.5-3.22 3.88-6.3 6.43-8.32l2.05-1.31"/>
      <path id="Shape" stroke="#54596B" stroke-width=".9705" d="m158.13 166.67c-4.53 0.99-6.22 3.9-7.48 5.41-2.77 3.34-1.51 12.79-1.51 12.79"/>
      <path id="Shape" stroke="#54596B" stroke-width=".9705" d="m112.7 40.257c-0.04 0.397-0.22 5.32-0.51 11.436-0.29 6.115-2.21 12.482-3.01 16.814-0.8 4.333-3.11 9.197-6.03 13.334-2.91 4.141-6.867 9.388-8.372 9.783-1.504 0.396-11.521-1.055-11.918-1.091-0.396-0.036-8.096-7.819-10.15-11.611-2.056-3.793-6.159-8.575-5.984-16.303 0.174-7.729 2.121-24.641 3.005-29.902 0.883-5.259 4.065-10.843 13.333-11.461 9.271-0.622 10.498 0.561 11.761 2.812 0 0 1.724-2.779 5.069-2.875 3.986-0.111 10.886 0.73 12.036 5.642s0.77 13.422 0.77 13.422z"/>
      <path id="Shape" stroke="#54596B" stroke-width=".9705" d="m112.19 51.693s4.19-12.168 3.93-22.473 0.55-14.77-5.46-20.661c-6-5.891-11.679-6.544-11.679-6.544s1.719 3.094 0.347 2.034c-1.372-1.061-6.605-3.675-11.049-3.281 0 0-6.006-1.486-8.487 2.292 0 0-4.984-0.99-7.43 0.923-2.444 1.912-2.639 2.561-2.639 2.561s-6.126 1.309-7.068 2.825c-0.938 1.516 0.952 1.289 0.952 1.289s-1.977 2.624-2.062 3.551c-0.085 0.926 1.563 0.41 1.563 0.41s-4.435 9.074-4.692 16.26c-0.258 7.186 1.05 13.315 1.05 13.315s3.264 2.301 4.091 4.913c0.828 2.614 2.317 6.755 3.306 6.178"/>
      <path id="Shape" stroke="#54596B" stroke-width=".9705" d="m59.841 44.495s-2.724 2.021-1.943 6.632c0.779 4.611 1.945 7.923 3.447 10.464 1.503 2.541 3.851 3.156 4.934 2.988"/>
      <path id="Shape" stroke="#54596B" stroke-width=".9705" d="m113.38 47.395s1.86 0.169 1.48 2.807c-0.37 2.635-1.48 7.474-2.06 9.423-0.58 1.95-1.61 4.393-2.4 4.321"/>
      <path id="Shape" fill="#54596B" d="m98.098 43.726s6.022-3.052 8.862-1.991c2.84 1.06 3.6 4.336 2.34 3.553-1.26-0.784-3.12-2.29-5.36-1.16s-8.263 1.246-5.842-0.402z"/>
      <path id="Shape" stroke="#54596B" stroke-width=".9705" d="m107.05 49.486s-1.44-1.934-5.03-1.93c-2.09 0.002-2.938 1.187-4.924 1.004"/>
      <path id="Shape" stroke="#54596B" stroke-width=".5709" fill="#54596B" d="m100.7 48.386c-0.03 0.355 0.2 0.667 0.54 0.918 0.11 0.077 0.55 0.029 0.87 0.059 0.36 0.032 0.93 0.141 1.09 0.056 0.35-0.177 0.44-0.43 0.47-0.761 0.06-0.588-0.56-1.125-1.38-1.198-0.82-0.075-1.53 0.338-1.59 0.926z"/>
      <path id="Shape" fill="#54596B" d="m85.321 44.45s-5.787-3.477-8.695-2.621c-2.909 0.856-3.911 4.066-2.594 3.375 1.314-0.69 3.284-2.058 5.437-0.772 2.153 1.288 8.149 1.835 5.852 0.018z"/>
      <path id="Shape" stroke="#54596B" stroke-width=".9705" d="m75.98 49.556s1.573-1.827 5.155-1.566c2.083 0.152 2.845 1.392 4.839 1.354"/>
      <path id="Shape" stroke="#54596B" stroke-width=".5709" fill="#54596B" d="m82.387 48.911c0.008 0.358-0.247 0.649-0.603 0.878-0.107 0.069-0.545-0.01-0.87-0.004-0.357 0.007-0.936 0.074-1.093-0.023-0.328-0.201-0.408-0.459-0.415-0.792-0.012-0.588 0.645-1.08 1.469-1.096 0.823-0.017 1.5 0.447 1.512 1.037z"/>
      <path id="Shape" stroke="#54596B" stroke-width=".9705" d="m101.67 69.894s-4.181 2.763-10.587 2.333c-6.409-0.43-11.058-2.901-11.058-2.901"/>
      <path id="Shape" stroke="#54596B" stroke-width=".9705" d="m97.241 63.356s-1.377-0.44-2.411 0.565c-1.035 1.007-4.041 1.202-5.188-0.002-1.147-1.208-3.232-0.769-3.232-0.769"/>
      <path id="Shape" stroke="#54596B" stroke-width=".9705" d="m64.116 52.459s-2.778 1.161-2.057 3.585c0.721 2.427 2.591 2.598 2.591 2.598"/>
      <path id="Shape" stroke="#54596B" stroke-width=".9705" d="m190.61 138.37c-0.31-0.13-3.02-1.64-6.59-0.6-3.58 1.05-11.82 2.19-11.82 2.19"/>
      <path id="Shape" stroke="#54596B" stroke-width=".9705" d="m189.59 145.98s-5.34-1.54-8.46-0.88c-3.12 0.67-8.01 2.22-10.55 2.31-2.54 0.08-3.66-1.18-3.66-1.18"/>
      <path id="Shape" stroke="#54596B" stroke-width=".9705" d="m187.02 152.18s-9.38-1.28-11.09-1.01c-1.71 0.26-7.13 1.77-9.03 1.81"/>
      <path id="Shape" stroke="#54596B" stroke-width=".9705" d="m179 167.17c-0.54 0.16-5.17 1.21-7.52-1.95"/>
     </g>
     <polyline id="Shape" stroke="#54596B" stroke-width=".9705" points="340.87 192.35 400.84 211.12 155.36 321.88 44.614 272.78 102.21 249.8"/>
     <polyline id="Shape" stroke="#54596B" stroke-width=".9705" points="144.24 233.02 287.8 175.73 311.4 183.12"/>
     <polyline id="Shape" stroke="#54596B" points="133.97 322.49 155.64 332.11 188.92 317.04 400.5 221.41 400.5 217"/>
     <polyline id="Shape" stroke="#54596B" points="43.5 277 43.5 282.62 60.013 290.06"/>
     <polygon id="Shape" stroke="#54596B" stroke-width=".9705" points="281.81 232.01 202.9 268.77 150.22 244.54 228.71 214.62"/>
     <polyline id="Shape" stroke="#54596B" stroke-width=".9705" points="141.09 299.6 84.305 274.39 131.27 256.58 187.54 280.25"/>
     <polyline id="Shape" stroke="#54596B" stroke-width=".9705" points="212.75 246.08 229.77 206.86 308.25 176.95 282.29 233.46 202.9 268.77" fill="#F1F0F4"/>
     <path id="Shape" stroke="#54596B" stroke-width=".9705" d="m96.744 206.91s-14.142 2.93-18.513 4.35c-4.374 1.42-3.514 2.86-3.798 5.97-0.283 3.1 3.715 37.97 3.715 37.97"/>
     <path id="Shape" stroke="#54596B" stroke-width=".9705" d="m0.086 165.46l69.075-21.13"/>
     <path id="Shape" stroke="#54596B" d="m51.5 150v-46"/>
     <path id="Shape" stroke="#54596B" stroke-width=".9705" d="m110.43 182.43l-0.03 1.71c-0.02 1.72-1.48 3.18-5.86 3.44-4.4 0.26-8.901-1.08-11.761-4.52s-1.867-5.59-0.958-11.2c0.91-5.6 0.518-7.09 2.63-9.94 2.113-2.85 2.816-3.32 3.784-5.21 0.967-1.9 4.095-2.8 4.095-2.8s3.35-0.49 5-2.59c1.64-2.09 2.07-6.82 1.81-11.2-0.25-4.39-0.87-10.67 3.36-10.67 4.24-0.01 4.66 6.9 5.08 12.5 0.41 5.59 0.82 9.73 0.7 12.5-0.12 2.76-0.84 4.81-0.84 4.81s3.05 3.54 1.67 6.84c-1.3 3.08-3.1 3.19-3.1 3.19s1.54 2.83 0.21 4.86c-1.34 2.02-2.92 2.16-2.92 2.16s1.03 1.25-0.02 3.3-2.85 2.82-2.85 2.82z"/>
     <path id="Shape" stroke="#54596B" stroke-width=".9705" d="m117.44 159.26s-3.08-1.91-7.05-3.42"/>
     <path id="Shape" stroke="#54596B" stroke-width=".9705" d="m116.3 169.57s-6.4-2.02-12.28-5.71"/>
     <path id="Shape" stroke="#54596B" stroke-width=".9705" d="m113.3 176.31s-0.58 1.05-5.65-0.94c-5.07-2-7.852-3.97-7.852-3.97"/>
     <path id="Shape" stroke="#54596B" stroke-width=".9705" d="m110.82 182.54s-1.71 0.89-4.87-0.07-8.491-4.31-8.491-4.31"/>
     <path id="Shape" stroke="#54596B" stroke-width=".9705" d="m83.359 201.71c5.694 0.43 12.423-3.16 14.071-6.55 1.647-3.38 3.94-7.56 3.94-7.56"/>
     <path id="Shape" stroke="#54596B" stroke-width=".9705" d="m93.922 162.55s-2.304 2.18-6.989 3.28c-4.687 1.1-15.165 5.97-16.009 18.31"/>
     <path id="Shape" stroke="#54596B" stroke-width=".9705" d="m89.11 165.08s-6.628-0.83-10.448 1.14c-3.82 1.98-10.391 6.78-11.918 13.51-1.525 6.73 0.71 18.75 6.296 22.9 5.585 4.15 11.687 4.36 18.617 1.56 6.928-2.8 11.103-10.55 11.843-16.35"/>
     <path id="Shape" stroke="#54596B" stroke-width=".9705" d="m163.47 145.87l-11.31 8.27"/>
     <path id="Shape" stroke="#54596B" stroke-width=".9705" d="m163.49 153.81l-11.31 8.27"/>
     <path id="Shape" stroke="#54596B" stroke-width=".9705" d="m163.49 153.81l-11.31 8.27"/>
     <path id="Shape" stroke="#54596B" stroke-width=".9705" d="m164.56 152.92l-12.38 9.16"/>
     <path id="Shape" stroke="#54596B" stroke-width=".9705" d="m163.51 161.75l-11.31 8.27"/>
     <path id="Shape" stroke="#54596B" stroke-width=".9705" d="m166.02 160l-14.6 10.45"/>
     <path id="Shape" stroke="#54596B" stroke-width=".9705" d="m163.52 169.7l-11.3 8.27"/>
     <path id="Shape" stroke="#54596B" stroke-width=".9705" d="m167.37 166.95l-15.7 11.59"/>
     <path id="Shape" stroke="#54596B" stroke-width=".9705" d="m163.54 177.64l-11.31 8.27"/>
     <path id="Shape" stroke="#54596B" stroke-width=".9705" d="m168.71 174.02l-17.27 12.44"/>
     <path id="Shape" stroke="#54596B" stroke-width=".9705" d="m163.56 185.59l-11.31 8.27"/>
     <path id="Shape" stroke="#54596B" stroke-width=".9705" d="m170.07 180.85l-18.91 14.02"/>
     <path id="Shape" stroke="#54596B" stroke-width=".9705" d="m163.57 193.53l-11.3 8.27"/>
     <path id="Shape" stroke="#54596B" stroke-width=".9705" d="m171.41 187.92l-20.36 15.01"/>
     <path id="Shape" stroke="#54596B" stroke-width=".9705" d="m163.59 201.47l-11.3 8.28"/>
     <path id="Shape" stroke="#54596B" stroke-width=".9705" d="m172.5 194.97l-21.82 15.99"/>
     <path id="Shape" stroke="#54596B" stroke-width=".9705" d="m163.61 209.42l-11.31 8.27"/>
     <path id="Shape" stroke="#54596B" stroke-width=".9705" d="m173.57 202.26l-22.87 16.64"/>
     <path id="Shape" stroke="#54596B" stroke-width=".9705" d="m174.43 209.16l-23.87 16.79"/>
     <path id="Shape" stroke="#54596B" stroke-width=".9705" d="m167.11 135.72l-11.76 7.39"/>
     <path id="Shape" stroke="#54596B" stroke-width=".9705" d="m162.14 130.61l-13.98 8.8"/>
     <path id="Shape" stroke="#54596B" stroke-width=".9705" d="m151.22 129.92l-8.35 4.51"/>
     <path id="Shape" stroke="#54596B" stroke-width=".9705" d="m175.43 215.56l-17.29 12.21"/>
     <path id="Shape" stroke="#54596B" stroke-width=".9705" d="m108.56 87.751l-9.12 1.756"/>
     <path id="Shape" stroke="#54596B" stroke-width=".9705" d="m103.68 52.407l-11.962-0.703"/>
     <path id="Shape" stroke="#54596B" stroke-width=".9705" d="m112.63 16.965l-4.23-5.632"/>
     <path id="Shape" stroke="#54596B" stroke-width=".9705" d="m155.56 8.519l2.12-8.448"/>
     <path id="Shape" stroke="#54596B" stroke-width=".9705" d="m185.04 19.113l7.74-6.335"/>
     <path id="Shape" stroke="#54596B" stroke-width=".9705" d="m195.38 41.26l7.75-4.223"/>
     <path id="Shape" stroke="#54596B" stroke-width=".9705" d="m194.22 69.9l9.15-3.52"/>
     <path id="Shape" stroke="#54596B" stroke-width=".9705" d="m204.3 177.12l-1.35 32.41"/>
     <path id="Shape" stroke="#54596B" stroke-width=".9705" d="m94.851 201.99s3.179 5.92 1.874 10.67c-1.304 4.75-3.017 6.46-0.161 9.31 2.854 2.86 4.566 6.28 1.712 10.85-2.854 4.56 0 18.82 0 18.82"/>
     <path id="Shape" stroke="#54596B" stroke-width=".9705" d="m186.48 90.319l11.13 1.713"/>
    </g>
   </g>
  </g>
 </g>
</svg>
